<?xml version="1.0" standalone="no"?>
<!DOCTYPE svg PUBLIC "-//W3C//DTD SVG 20010904//EN"
 "http://www.w3.org/TR/2001/REC-SVG-20010904/DTD/svg10.dtd">
<svg version="1.0" xmlns="http://www.w3.org/2000/svg"
 width="500.000000pt" height="500.000000pt" viewBox="0 0 500.000000 500.000000"
 preserveAspectRatio="xMidYMid meet">
<metadata>
Created by potrace 1.14, written by Peter Selinger 2001-2017
</metadata>
<g transform="translate(0.000000,500.000000) scale(0.100000,-0.100000)"
fill="#000000" stroke="none">
<path d="M2469 4045 c-3 -2 -38 -5 -79 -6 -41 -1 -106 -8 -145 -16 -38 -7 -83
-16 -100 -18 -31 -6 -144 -40 -180 -55 -391 -161 -667 -408 -842 -753 -53
-105 -118 -284 -128 -353 -3 -21 -8 -46 -11 -54 -3 -8 -8 -33 -10 -55 -3 -22
-8 -51 -10 -65 -6 -31 -5 -294 1 -335 2 -16 6 -48 9 -70 27 -200 117 -433 241
-620 52 -79 179 -230 226 -270 185 -156 282 -220 451 -294 59 -26 213 -78 252
-85 16 -3 52 -10 80 -15 28 -5 76 -12 106 -16 60 -6 303 -7 335 -1 19 3 102
17 135 21 8 1 51 12 96 23 558 147 987 597 1116 1173 20 91 23 131 23 319 0
189 -3 228 -23 319 -116 516 -443 903 -947 1121 -122 53 -333 95 -495 99 -46
1 -87 4 -91 6 -3 3 -8 3 -10 0z"/>
</g>
</svg>
