<svg width="575" height="559" viewBox="0 0 575 559" fill="none" xmlns="http://www.w3.org/2000/svg">
<g filter="url(#filter0_d_18_43)">
<path d="M53.3658 75.3099C56.8181 73.7426 62.8204 71.9398 65.1563 67.6512C65.1563 67.6512 65.2868 61.6534 66.8293 59.9925C73.2969 53.0283 80.1745 46.662 86.9847 40.314C88.8173 38.6058 94.0494 35.4179 95.1106 32.2298C98.9532 20.6859 117.401 20.2543 125.384 17.4443C134.892 14.0973 143.61 8.54236 153.267 5.53085C171.175 -0.0542684 186.646 2.65885 186.646 2.65885C202.91 8.20329 221.049 7.49792 237.712 9.36018C241.084 9.73706 249.441 8.7056 251.893 13.615C254.853 19.5448 269.067 15.9551 273.084 15.9551C290.316 15.9551 312.145 11.2444 328.292 21.5928C334.652 25.6687 344.478 23.6138 351.076 23.6138C368.147 23.6138 385.251 23.3713 402.301 24.6775C403.077 24.737 421.07 24.5341 420.465 29.7833C420.267 31.5045 418.177 33.5515 418.235 35.1018C418.463 41.1908 466.93 48.1197 472.726 49.5682C476.341 50.4717 492.589 50.0697 484.755 57.6524C480.248 62.0154 474.831 66.7706 472.328 73.7143C469.585 81.3202 488.267 78.1421 475.514 87.2234C463.287 95.9305 449.481 101.111 436.398 107.008C433.471 108.328 425.108 110.506 427.954 112.114C434.279 115.687 429.256 118.166 424.608 121.687C418.397 126.392 409.502 128.83 404.213 135.303C401.725 138.349 410.583 138.33 413.853 139.451C433.718 146.265 453.413 153.931 473.284 160.725C477.158 162.05 494.771 164.407 496.068 173.064C496.471 175.755 488.148 191.462 492.483 192.105C500.442 193.285 509.442 190.719 516.383 197.849C523.793 205.46 487.822 213.166 483.082 213.166C468.464 213.166 512.156 217.313 526.66 219.761C528.976 220.152 542.026 220.417 534.706 225.93C528.567 230.554 521.608 233.197 515.586 238.057C504.541 246.97 539.794 264.331 544.106 268.266C552.556 275.974 554.742 286.625 564.819 288.795C565.312 288.901 571.122 289.195 568.165 290.072C558.449 292.955 548.829 296.375 539.087 299.113C530.51 301.525 521.918 303.47 513.196 304.645C511.871 304.823 508.271 303.812 509.213 305.07C510.389 306.64 518.101 306.824 519.729 307.41C527.11 310.071 530.337 315.738 535.184 322.728C543.662 334.954 502.372 355.854 499.016 358.043C484.293 367.646 518.199 366.063 504 377C489.382 379.833 558.402 394.599 544.106 399.953C535.638 403.124 533.653 409.043 526.66 416.546C523.738 419.681 461.636 437.058 465.317 438C482.914 442.505 419.496 439.879 436.637 446.862C444.856 450.21 457.789 455.102 465.317 462.498C475.436 472.441 472.808 491.745 469.778 505.578C466.915 518.649 456.969 544.404 444.365 544.404H393.379C386.508 544.404 377.678 546.202 370.913 543.553C365.134 541.289 360.105 534.152 355.139 529.937C341.647 518.486 327.34 522.074 312.12 521.321C306.817 521.059 303.019 519.74 299.134 514.726C297.569 512.705 295.904 508.472 293.478 508.131C274.151 505.415 253.488 521.311 234.366 524.406C230.552 525.023 224.843 526.609 221.142 523.981C218.718 522.259 216.999 519.099 214.29 518.024C205.456 514.517 194.068 526.555 186.328 530.363C183.226 531.889 183.544 531.229 182.584 528.342C181.76 525.868 169.889 525.835 169.598 525.789C148.809 522.508 128.267 516.827 107.379 514.62C94.4471 513.253 80.5669 514.263 68.0243 509.089C47.9141 500.792 71.3673 480.45 78.8588 472.923C82.8906 468.872 89.321 465.413 82.1251 460.903C73.6335 455.581 64.0433 453.321 54.7998 451.861C51.8173 451.39 25.972 449.304 27.4745 447.607C41.1155 432.195 61.2652 427.015 76.9468 416.546C81.2632 413.665 79.8895 412.51 76.1502 411.441C64.7204 408.17 53.1614 405.612 41.5753 403.569C38.9996 403.115 3.54645 402.527 8.19537 391.975C14.1799 378.391 31.4682 372.504 40.699 363.787C49.0634 355.887 32.9589 352.577 28.6694 351.022C21.976 348.596 15.9578 346.277 19.2689 335.705C20.8047 330.801 41.5461 309.584 41.0973 308.899C40.5579 308.076 36.7965 306.48 37.9107 304.857C41.77 299.236 50.7638 296.293 55.7558 293.688C102.463 269.316 21.8297 276.767 23.2522 262.522C24.4419 250.608 29.0325 248.515 18.7909 244.545C8.29228 240.476 21.8353 218.095 25.4031 213.485C27.6619 210.566 45.6586 195.756 35.3614 192.956C29.6566 191.404 23.7418 192.634 17.9942 192.105C13.9545 191.733 25.7259 188.881 29.6254 187.424C44.5261 181.858 59.2194 175.571 73.9196 169.129C89.7944 162.172 110.781 156.645 123.472 140.94C127.176 136.356 125.595 133.302 121.4 131.686C89.5922 119.435 56.0039 116.184 23.7302 106.796C23.1668 106.632 4.15821 99.6268 6.5 96.5C11.3157 90.0701 13.2426 85.905 19.1096 84.8832C30.7671 82.8529 42.2072 80.3755 53.3658 75.3099Z" fill="#6D0D43"/>
<path d="M53.3658 75.3099C56.8181 73.7426 62.8204 71.9398 65.1563 67.6512C65.1563 67.6512 65.2868 61.6534 66.8293 59.9925C73.2969 53.0283 80.1745 46.662 86.9847 40.314C88.8173 38.6058 94.0494 35.4179 95.1106 32.2298C98.9532 20.6859 117.401 20.2543 125.384 17.4443C134.892 14.0973 143.61 8.54236 153.267 5.53085C171.175 -0.0542684 186.646 2.65885 186.646 2.65885C202.91 8.20329 221.049 7.49792 237.712 9.36018C241.084 9.73706 249.441 8.7056 251.893 13.615C254.853 19.5448 269.067 15.9551 273.084 15.9551C290.316 15.9551 312.145 11.2444 328.292 21.5928C334.652 25.6687 344.478 23.6138 351.076 23.6138C368.147 23.6138 385.251 23.3713 402.301 24.6775C403.077 24.737 421.07 24.5341 420.465 29.7833C420.267 31.5045 418.177 33.5515 418.235 35.1018C418.463 41.1908 466.93 48.1197 472.726 49.5682C476.341 50.4717 492.589 50.0697 484.755 57.6524C480.248 62.0154 474.831 66.7706 472.328 73.7143C469.585 81.3202 488.267 78.1421 475.514 87.2234C463.287 95.9305 449.481 101.111 436.398 107.008C433.471 108.328 425.108 110.506 427.954 112.114C434.279 115.687 429.256 118.166 424.608 121.687C418.397 126.392 409.502 128.83 404.213 135.303C401.725 138.349 410.583 138.33 413.853 139.451C433.718 146.265 453.413 153.931 473.284 160.725C477.158 162.05 494.771 164.407 496.068 173.064C496.471 175.755 488.148 191.462 492.483 192.105C500.442 193.285 509.442 190.719 516.383 197.849C523.793 205.46 487.822 213.166 483.082 213.166C468.464 213.166 512.156 217.313 526.66 219.761C528.976 220.152 542.026 220.417 534.706 225.93C528.567 230.554 521.608 233.197 515.586 238.057C504.541 246.97 539.794 264.331 544.106 268.266C552.556 275.974 554.742 286.625 564.819 288.795C565.312 288.901 571.122 289.195 568.165 290.072C558.449 292.955 548.829 296.375 539.087 299.113C530.51 301.525 521.918 303.47 513.196 304.645C511.871 304.823 508.271 303.812 509.213 305.07C510.389 306.64 518.101 306.824 519.729 307.41C527.11 310.071 530.337 315.738 535.184 322.728C543.662 334.954 502.372 355.854 499.016 358.043C484.293 367.646 518.199 366.063 504 377C489.382 379.833 558.402 394.599 544.106 399.953C535.638 403.124 533.653 409.043 526.66 416.546C523.738 419.681 461.636 437.058 465.317 438C482.914 442.505 419.496 439.879 436.637 446.862C444.856 450.21 457.789 455.102 465.317 462.498C475.436 472.441 472.808 491.745 469.778 505.578C466.915 518.649 456.969 544.404 444.365 544.404H393.379C386.508 544.404 377.678 546.202 370.913 543.553C365.134 541.289 360.105 534.152 355.139 529.937C341.647 518.486 327.34 522.074 312.12 521.321C306.817 521.059 303.019 519.74 299.134 514.726C297.569 512.705 295.904 508.472 293.478 508.131C274.151 505.415 253.488 521.311 234.366 524.406C230.552 525.023 224.843 526.609 221.142 523.981C218.718 522.259 216.999 519.099 214.29 518.024C205.456 514.517 194.068 526.555 186.328 530.363C183.226 531.889 183.544 531.229 182.584 528.342C181.76 525.868 169.889 525.835 169.598 525.789C148.809 522.508 128.267 516.827 107.379 514.62C94.4471 513.253 80.5669 514.263 68.0243 509.089C47.9141 500.792 71.3673 480.45 78.8588 472.923C82.8906 468.872 89.321 465.413 82.1251 460.903C73.6335 455.581 64.0433 453.321 54.7998 451.861C51.8173 451.39 25.972 449.304 27.4745 447.607C41.1155 432.195 61.2652 427.015 76.9468 416.546C81.2632 413.665 79.8895 412.51 76.1502 411.441C64.7204 408.17 53.1614 405.612 41.5753 403.569C38.9996 403.115 3.54645 402.527 8.19537 391.975C14.1799 378.391 31.4682 372.504 40.699 363.787C49.0634 355.887 32.9589 352.577 28.6694 351.022C21.976 348.596 15.9578 346.277 19.2689 335.705C20.8047 330.801 41.5461 309.584 41.0973 308.899C40.5579 308.076 36.7965 306.48 37.9107 304.857C41.77 299.236 50.7638 296.293 55.7558 293.688C102.463 269.316 21.8297 276.767 23.2522 262.522C24.4419 250.608 29.0325 248.515 18.7909 244.545C8.29228 240.476 21.8353 218.095 25.4031 213.485C27.6619 210.566 45.6586 195.756 35.3614 192.956C29.6566 191.404 23.7418 192.634 17.9942 192.105C13.9545 191.733 25.7259 188.881 29.6254 187.424C44.5261 181.858 59.2194 175.571 73.9196 169.129C89.7944 162.172 110.781 156.645 123.472 140.94C127.176 136.356 125.595 133.302 121.4 131.686C89.5922 119.435 56.0039 116.184 23.7302 106.796C23.1668 106.632 4.15821 99.6268 6.5 96.5C11.3157 90.0701 13.2426 85.905 19.1096 84.8832C30.7671 82.8529 42.2072 80.3755 53.3658 75.3099Z" stroke="#6B254C" stroke-width="3" stroke-linecap="round"/>
</g>
<defs>
<filter id="filter0_d_18_43" x="0.800232" y="0.5" width="573.701" height="558" filterUnits="userSpaceOnUse" color-interpolation-filters="sRGB">
<feFlood flood-opacity="0" result="BackgroundImageFix"/>
<feColorMatrix in="SourceAlpha" type="matrix" values="0 0 0 0 0 0 0 0 0 0 0 0 0 0 0 0 0 0 127 0" result="hardAlpha"/>
<feOffset dy="8"/>
<feGaussianBlur stdDeviation="2"/>
<feComposite in2="hardAlpha" operator="out"/>
<feColorMatrix type="matrix" values="0 0 0 0 0 0 0 0 0 0 0 0 0 0 0 0 0 0 0.25 0"/>
<feBlend mode="normal" in2="BackgroundImageFix" result="effect1_dropShadow_18_43"/>
<feBlend mode="normal" in="SourceGraphic" in2="effect1_dropShadow_18_43" result="shape"/>
</filter>
</defs>
</svg>
